<?xml version="1.0" encoding="utf-8"?>
<!-- Generator: Adobe Illustrator 24.2.0, SVG Export Plug-In . SVG Version: 6.00 Build 0)  -->
<svg version="1.1" id="Capa_1" xmlns="http://www.w3.org/2000/svg" xmlns:xlink="http://www.w3.org/1999/xlink" x="0px" y="0px"
	 viewBox="0 0 480 203" style="enable-background:new 0 0 480 203;" xml:space="preserve">
<style type="text/css">
	.st0{fill:#258280;}
	.st1{fill:#559794;}
	.st2{fill:#003437;}
	.st3{fill:#9ABFBD;}
	.st4{fill:#5E9C99;}
	.st5{fill:#599996;}
	.st6{fill:#88B4B2;}
	.st7{fill:#80B0AD;}
	.st8{fill:#E6EEEE;}
	.st9{fill:#FFFFFF;}
	.st10{fill:#B2CDCC;}
	.st11{opacity:0.7;fill:#E6EEEE;}
	.st12{fill:#8FB9B7;}
	.st13{opacity:0.5;fill:#E6EEEE;}
	.st14{fill:none;stroke:#00CF57;stroke-width:0.5;stroke-miterlimit:10;}
	.st15{fill:none;stroke:#00CF57;stroke-width:0.5;stroke-miterlimit:10;stroke-dasharray:1.0014,1.0014;}
	.st16{fill:#00CF57;}
	.st17{fill:#005F5A;}
	.st18{fill:#4D928F;}
	.st19{fill:#00726D;}
	.st20{fill:none;stroke:#00CF57;stroke-linecap:round;stroke-linejoin:round;stroke-miterlimit:10;}
</style>
<g>
	<g>
		<g>
			<path class="st0" d="M212.6,81.23c-4.79-1.39-8.2,0.08-10.6,3.23l8.55,8.62L212.6,81.23z"/>
			<path class="st0" d="M201.28,152.54l6.53-2c0,0,3.8-8.77,7.39-20.1l-10.33,1.33L201.28,152.54z"/>
			<polygon class="st0" points="197.69,128.54 197.69,153.63 200.21,152.86 203.89,131.6 			"/>
			<path class="st0" d="M208.1,107.26l2.24-12.96l-8.93-9.01c-1.81,2.76-2.98,6.56-3.72,10.79v3.37L208.1,107.26z"/>
			<path class="st0" d="M205.05,130.73l10.48-1.35c1.06-3.42,2.1-7.05,3-10.72l-11.67,1.6L205.05,130.73z"/>
			<polygon class="st0" points="207.91,108.37 197.69,100.7 197.69,114.35 206.06,119.03 			"/>
			<path class="st0" d="M220.4,89.74c-1.15-3.9-3.3-6.81-6.84-8.18l-2.04,11.77L220.4,89.74z"/>
			<path class="st0" d="M209.07,107.51l11.99-2.52c0.59-5.31,0.58-10.25-0.41-14.27l-9.34,3.77L209.07,107.51z"/>
			<polygon class="st0" points="188.46,142.11 196.69,134.86 196.69,120.03 185.45,129.71 			"/>
			<path class="st0" d="M207.04,119.22l11.74-1.61c0.92-3.89,1.68-7.82,2.16-11.59l-12.05,2.54L207.04,119.22z"/>
			<polygon class="st0" points="205.88,120.08 197.69,115.49 197.69,127.43 204.07,130.57 			"/>
			<path class="st0" d="M181.52,117.77l-23.36-1.44c0.97,4.58,2.21,9.16,3.7,13.63l22.4-0.91L181.52,117.77z"/>
			<path class="st0" d="M177.82,102.56l-21.96-2.97c0.29,5.06,1,10.37,2.08,15.72l23.32,1.44L177.82,102.56z"/>
			<path class="st0" d="M168.94,65.99c-6.22,1.52-10.07,7.31-11.91,15.45l16.79,4.62L168.94,65.99z"/>
			<path class="st0" d="M178.5,101.11l15.71-16.36c-1.35-3.89-3.11-7.48-5.37-10.47l-13.79,12.66L178.5,101.11z"/>
			<path class="st0" d="M184.5,130.04l-22.31,0.9c1.47,4.3,3.18,8.47,5.08,12.39l20.27-0.78L184.5,130.04z"/>
			<path class="st0" d="M167.75,144.32c2.94,5.88,6.34,11.16,10.13,15.38l12.87-3.94l-2.97-12.21L167.75,144.32z"/>
			<polygon class="st0" points="185.18,128.61 196.69,118.71 196.69,105.32 182.47,117.48 			"/>
			<path class="st0" d="M182.21,116.39L196.69,104v-9.77c-0.54-2.88-1.24-5.71-2.12-8.42l-15.8,16.45L182.21,116.39z"/>
			<polygon class="st0" points="188.72,143.21 191.7,155.47 196.69,153.94 196.69,136.19 			"/>
			<path class="st0" d="M188.22,73.49c-3.34-4.09-7.71-6.94-13.44-7.73c-1.75-0.24-3.37-0.22-4.86,0.03l4.87,20.04L188.22,73.49z"/>
			<path class="st0" d="M174.08,87.17l-17.26-4.75c-0.96,4.76-1.28,10.27-1,16.16l21.75,2.94L174.08,87.17z"/>
			<polygon class="st1" points="188.36,143.53 187.78,143.55 190.75,155.76 191.7,155.47 188.72,143.21 			"/>
			<path class="st1" d="M174.37,86.21l0.42-0.39l-4.87-20.04c-0.33,0.06-0.66,0.12-0.98,0.2l4.87,20.07L174.37,86.21z"/>
			<polygon class="st1" points="188.46,142.11 185.45,129.71 185.08,130.02 184.5,130.04 187.54,142.56 187.97,142.54 			"/>
			<polygon class="st1" points="185.18,128.61 182.47,117.48 182.09,117.81 181.52,117.77 184.26,129.05 184.69,129.03 			"/>
			<polygon class="st1" points="178.5,101.11 175.06,86.93 174.63,87.32 174.08,87.17 177.57,101.52 178.04,101.58 			"/>
			<polygon class="st1" points="182.21,116.39 178.78,102.26 178.41,102.64 177.82,102.56 181.27,116.75 181.74,116.78 			"/>
			<polygon class="st1" points="207.91,108.37 206.06,119.03 206.53,119.29 207.04,119.22 208.89,108.57 208.33,108.69 			"/>
			<polygon class="st1" points="205.88,120.08 204.07,130.57 204.53,130.8 205.05,130.73 206.86,120.26 206.34,120.33 			"/>
			<path class="st1" d="M211,93.54l0.52-0.21l2.04-11.77c-0.3-0.12-0.6-0.22-0.92-0.32c-0.01,0-0.02-0.01-0.04-0.01l-2.05,11.85
				L211,93.54z"/>
			<polygon class="st1" points="204.36,131.83 203.89,131.6 200.21,152.86 201.28,152.54 204.87,131.76 			"/>
			<polygon class="st1" points="210.34,94.29 208.1,107.26 208.57,107.61 209.07,107.51 211.32,94.48 210.75,94.71 			"/>
			<path class="st1" d="M173.81,86.06l-16.79-4.62c-0.07,0.32-0.14,0.65-0.21,0.98l17.26,4.75L173.81,86.06z"/>
			<path class="st1" d="M175.06,86.93l13.79-12.66c-0.2-0.27-0.41-0.53-0.62-0.79l-13.44,12.33L175.06,86.93z"/>
			<polygon class="st1" points="175.06,86.93 174.79,85.82 174.37,86.21 173.81,86.06 174.08,87.17 174.63,87.32 			"/>
			<path class="st1" d="M177.57,101.52l-21.75-2.94c0.02,0.34,0.03,0.68,0.05,1.02l21.96,2.97L177.57,101.52z"/>
			<path class="st1" d="M178.78,102.26l15.8-16.45c-0.12-0.36-0.24-0.71-0.36-1.07l-15.71,16.36L178.78,102.26z"/>
			<polygon class="st1" points="178.78,102.26 178.5,101.11 178.04,101.58 177.57,101.52 177.82,102.56 178.41,102.64 			"/>
			<polygon class="st1" points="182.47,117.48 196.69,105.32 196.69,104 182.21,116.39 			"/>
			<path class="st1" d="M181.27,116.75l-23.32-1.44c0.07,0.34,0.14,0.68,0.21,1.01l23.36,1.44L181.27,116.75z"/>
			<polygon class="st1" points="182.47,117.48 182.21,116.39 181.74,116.78 181.27,116.75 181.52,117.77 182.09,117.81 			"/>
			<path class="st1" d="M196.97,128.19l0.44-0.9l0.28,0.14v-11.94l-0.74-0.42l0.49-0.87l0.26,0.14V100.7l-0.8-0.6l0.6-0.8l0.2,0.15
				v-3.37c-0.12,0.71-0.24,1.43-0.33,2.16c-0.19-1.34-0.41-2.68-0.67-4.01V104l0.17-0.15l0.65,0.76l-0.83,0.71v13.39l0.17-0.15
				l0.65,0.76l-0.83,0.71v14.83l0.17-0.15l0.66,0.75l-0.83,0.73v17.75l1-0.31v-25.09L196.97,128.19z"/>
			<polygon class="st1" points="197.52,104.61 196.87,103.85 196.69,104 196.69,105.32 			"/>
			<path class="st1" d="M211.52,93.32l-0.2,1.16l9.34-3.77c-0.08-0.33-0.17-0.66-0.26-0.97L211.52,93.32z"/>
			<path class="st1" d="M210.55,93.08l-8.55-8.62c-0.2,0.26-0.4,0.54-0.59,0.83l8.93,9.01L210.55,93.08z"/>
			<polygon class="st1" points="210.55,93.08 210.34,94.29 210.75,94.71 211.32,94.48 211.52,93.32 211,93.54 			"/>
			<path class="st1" d="M208.89,108.57l12.05-2.54c0.04-0.35,0.08-0.7,0.12-1.05l-11.99,2.52L208.89,108.57z"/>
			<polygon class="st1" points="208.1,107.26 197.69,99.45 197.69,100.7 207.91,108.37 			"/>
			<polygon class="st1" points="208.1,107.26 207.91,108.37 208.33,108.69 208.89,108.57 209.07,107.51 208.57,107.61 			"/>
			<polygon class="st1" points="197.49,99.3 196.89,100.1 197.69,100.7 197.69,99.45 			"/>
			<polygon class="st1" points="206.06,119.03 197.69,114.35 197.69,115.49 205.88,120.08 			"/>
			<path class="st1" d="M206.86,120.26l11.67-1.6c0.09-0.35,0.17-0.7,0.25-1.04l-11.74,1.61L206.86,120.26z"/>
			<polygon class="st1" points="206.06,119.03 205.88,120.08 206.34,120.33 206.86,120.26 207.04,119.22 206.53,119.29 			"/>
			<polygon class="st1" points="197.43,114.2 196.95,115.07 197.69,115.49 197.69,114.35 			"/>
			<path class="st1" d="M204.87,131.76l10.33-1.33c0.11-0.35,0.22-0.7,0.33-1.05l-10.48,1.35L204.87,131.76z"/>
			<polygon class="st1" points="197.69,127.43 197.69,128.54 203.89,131.6 204.07,130.57 			"/>
			<polygon class="st1" points="204.07,130.57 203.89,131.6 204.36,131.83 204.87,131.76 205.05,130.73 204.53,130.8 			"/>
			<polygon class="st1" points="197.41,127.29 196.97,128.19 197.69,128.54 197.69,127.43 			"/>
			<path class="st1" d="M184.26,129.05l-22.4,0.91c0.11,0.33,0.22,0.66,0.33,0.99l22.31-0.9L184.26,129.05z"/>
			<polygon class="st1" points="185.45,129.71 196.69,120.03 196.69,118.71 185.18,128.61 			"/>
			<polygon class="st1" points="185.45,129.71 185.18,128.61 184.69,129.03 184.26,129.05 184.5,130.04 185.08,130.02 			"/>
			<polygon class="st1" points="197.52,119.31 196.86,118.56 196.69,118.71 196.69,120.03 			"/>
			<polygon class="st1" points="188.72,143.21 196.69,136.19 196.69,134.86 188.46,142.11 			"/>
			<path class="st1" d="M187.54,142.56l-20.27,0.78c0.16,0.33,0.32,0.66,0.48,0.98l20.03-0.77L187.54,142.56z"/>
			<polygon class="st1" points="187.97,142.54 187.54,142.56 187.78,143.55 188.36,143.53 188.72,143.21 188.46,142.11 			"/>
			<polygon class="st1" points="197.52,135.46 196.86,134.71 196.69,134.86 196.69,136.19 			"/>
		</g>
		<path class="st2" d="M264.79,179c0,0-7.04-47.58-49.68-54.89c-42.64-7.32-37.48-67.55-95.74-65.16
			c-58.26,2.4-46.25,58.44-69.44,71.03C26.76,142.56,15.99,179,15.99,179H264.79z"/>
		<path class="st2" d="M257.51,179c0,0,0-38.58,45.72-52.16c45.72-13.59,34.84-84.35,91.99-73.46
			c57.15,10.89,29.39,83.28,51.71,99.06c22.32,15.79,17.42,26.56,17.42,26.56H257.51z"/>
		<g>
			<path class="st3" d="M33.53,179.21l1.73,0.03L3.93,66.93C-5.85,70.86,33.53,179.21,33.53,179.21z"/>
			<path class="st3" d="M44.89,179.4l29.87-85.39c-7.74-0.38-17.75,33.01-22.41,50.32c-1.57,6.25-2.6,10.13-2.6,10.13
				s0.98-4.08,2.6-10.13c6.27-25.01,21.07-88.16,12.22-94.15L41.25,179.34L44.89,179.4z"/>
			<path class="st3" d="M37.55,179.28L34.89,26.73c-10.79,7.3-1.36,132.46-1.36,132.46S15.19,69.26,4.95,66.86l31.36,112.4
				L37.55,179.28z"/>
			<path class="st3" d="M52.34,144.34c-1.63,6.04-2.6,10.13-2.6,10.13S50.77,150.59,52.34,144.34z"/>
			<path class="st3" d="M40.24,179.32L63.62,49.81c-12.23-2.13-23.41,109.37-23.41,109.37s8.1-132.8-4.29-132.8
				c-0.01,0-0.02,0.01-0.03,0.01l2.67,152.91L40.24,179.32z"/>
			<path class="st3" d="M49.26,179.48c0,0,37.17-79.47,26.69-85.13c-0.07-0.04-0.14-0.06-0.22-0.09l-29.79,85.17L49.26,179.48z"/>
			<path class="st4" d="M36.3,179.25L4.95,66.86c-0.33-0.08-0.65-0.07-0.96,0.04c-0.02,0.01-0.04,0.02-0.06,0.03l31.33,112.3
				L36.3,179.25z"/>
			<path class="st4" d="M38.55,179.29L35.89,26.39c-0.35,0.01-0.68,0.12-0.99,0.34l2.66,152.55L38.55,179.29z"/>
			<path class="st4" d="M41.25,179.34L64.56,50.19c-0.17-0.11-0.34-0.21-0.53-0.28c-0.14-0.05-0.28-0.08-0.42-0.1L40.24,179.32
				L41.25,179.34z"/>
			<path class="st4" d="M45.94,179.42l29.79-85.17c-0.32-0.14-0.65-0.22-0.98-0.24L44.89,179.4L45.94,179.42z"/>
		</g>
		<g>
			<path class="st3" d="M440.06,179.32l23.38-129.51c-12.23-2.13-23.41,109.37-23.41,109.37s8.1-132.8-4.29-132.8
				c-0.01,0-0.02,0.01-0.03,0.01l2.67,152.91L440.06,179.32z"/>
			<path class="st3" d="M444.71,179.4l29.87-85.39c-7.74-0.38-17.75,33.01-22.41,50.32c-1.57,6.25-2.6,10.13-2.6,10.13
				s0.98-4.08,2.6-10.13c6.27-25.01,21.07-88.16,12.22-94.15l-23.31,129.15L444.71,179.4z"/>
			<path class="st3" d="M452.16,144.34c-1.63,6.04-2.6,10.13-2.6,10.13S450.59,150.59,452.16,144.34z"/>
			<path class="st3" d="M449.08,179.48c0,0,37.17-79.47,26.69-85.13c-0.07-0.04-0.15-0.06-0.22-0.09l-29.79,85.17L449.08,179.48z"/>
			<path class="st3" d="M433.35,179.21l1.73,0.03l-31.33-112.3C393.97,70.86,433.35,179.21,433.35,179.21z"/>
			<path class="st3" d="M437.37,179.28l-2.66-152.55c-10.79,7.3-1.36,132.46-1.36,132.46s-18.35-89.92-28.59-92.32l31.36,112.4
				L437.37,179.28z"/>
			<path class="st4" d="M436.12,179.25l-31.36-112.4c-0.33-0.08-0.65-0.07-0.96,0.04c-0.02,0.01-0.04,0.02-0.06,0.03l31.33,112.3
				L436.12,179.25z"/>
			<path class="st4" d="M438.37,179.29l-2.67-152.91c-0.35,0.01-0.68,0.12-0.99,0.34l2.66,152.55L438.37,179.29z"/>
			<path class="st4" d="M441.07,179.34l23.31-129.15c-0.17-0.11-0.34-0.21-0.53-0.28c-0.14-0.05-0.28-0.08-0.42-0.1l-23.38,129.51
				L441.07,179.34z"/>
			<path class="st4" d="M445.76,179.42l29.79-85.17c-0.32-0.14-0.65-0.22-0.98-0.24l-29.87,85.39L445.76,179.42z"/>
		</g>
		<g>
			<path class="st5" d="M70.44,76.6l24.16,101.78l1.93-0.02l5.92-29.86C102.75,136.44,100.75,101.51,70.44,76.6z"/>
			<path class="st5" d="M70.03,178.59l10.69-0.09L36.4,128.52C47.5,167.99,70.03,178.59,70.03,178.59z"/>
			<path class="st5" d="M36.65,127.29l45.4,51.2l2.82-0.02l-14.03-28.74C65.57,141.64,54.4,128.58,36.65,127.29z"/>
			<path class="st5" d="M71.05,147.89l14.92,30.56l7.59-0.07L69.59,77.36C58.5,105.14,66.08,134.13,71.05,147.89z"/>
			<path class="st5" d="M114.25,178.21c0,0,34.11-13.19,34.71-65.17l-45.09,65.26L114.25,178.21z"/>
			<path class="st5" d="M103.3,149.33l-5.76,29.02l5.1-0.04l45.95-66.5C116.13,125.39,106.18,142.2,103.3,149.33z"/>
			<path class="st6" d="M36.04,127.24c0.12,0.44,0.25,0.85,0.37,1.28l44.32,49.98l1.33-0.01l-45.4-51.2
				C36.44,127.27,36.25,127.25,36.04,127.24z"/>
			<path class="st6" d="M70.03,76.26c-0.15,0.37-0.3,0.73-0.44,1.1l23.98,101.03l1.03-0.01L70.44,76.6
				C70.3,76.49,70.17,76.38,70.03,76.26z"/>
			<path class="st6" d="M148.6,111.81l-45.95,66.5l1.22-0.01l45.09-65.26c0.01-0.46,0.01-0.92,0.01-1.39
				C148.85,111.7,148.73,111.75,148.6,111.81z"/>
			<path class="st1" d="M74.08,155.38c0.21,0.46,0.33,0.71,0.33,0.71S74.3,155.83,74.08,155.38z"/>
			<path class="st1" d="M74.08,155.38c0.22,0.45,0.33,0.71,0.33,0.71S74.29,155.84,74.08,155.38c-0.5-1.03-1.58-3.09-3.25-5.66
				l14.03,28.74l1.11-0.01l-14.92-30.56C72.39,151.6,73.54,154.2,74.08,155.38z"/>
			<path class="st1" d="M102.19,152.8c0,0,0.19-1.56,0.25-4.3l-5.92,29.86l1.02-0.01l5.76-29.02
				C102.42,151.51,102.19,152.8,102.19,152.8z"/>
		</g>
		<g>
			<path class="st0" d="M395.43,156.52l5.32,23.42h2.63l15.46-105.1C391.74,102.16,393.06,139.5,395.43,156.52z"/>
			<path class="st0" d="M358.9,108.43l39.58,71.52h1.24l-5.87-25.84C389.21,140.7,378.95,119.06,358.9,108.43z"/>
			<path class="st0" d="M391.41,179.95h5.92L358.07,109C358.47,163.94,391.41,179.95,391.41,179.95z"/>
			<path class="st0" d="M422.39,179.95c0,0,26.96-12.57,39.33-54.44l-43.74,54.44H422.39z"/>
			<path class="st0" d="M423.01,158.03l-8.19,21.92h1.87l44.81-55.77C440.2,130.83,428.48,147.53,423.01,158.03z"/>
			<path class="st0" d="M419.68,76.02l-15.29,103.92h9.36l8.2-21.95C426.47,141.81,433.34,106.81,419.68,76.02z"/>
			<path class="st1" d="M358.06,107.99c0,0.34,0.01,0.67,0.01,1.01l39.27,70.95h1.14l-39.58-71.52
				C358.62,108.28,358.34,108.13,358.06,107.99z"/>
			<path class="st1" d="M419.05,74.63c-0.07,0.07-0.14,0.15-0.21,0.22l-15.46,105.1h1.01l15.29-103.92
				C419.47,75.56,419.27,75.09,419.05,74.63z"/>
			<path class="st1" d="M461.5,124.18l-44.81,55.77h1.28l43.74-54.44c0.15-0.52,0.31-1.02,0.46-1.55
				C461.95,124.02,461.73,124.11,461.5,124.18z"/>
			<path class="st1" d="M396.57,163.18c0.39,1.57,0.56,2.47,0.56,2.47S396.9,164.78,396.57,163.18c-0.51-2.04-1.38-5.21-2.71-9.07
				l5.87,25.84h1.02l-5.32-23.42C395.82,159.35,396.24,161.62,396.57,163.18z"/>
			<path class="st1" d="M396.57,163.18c0.33,1.6,0.56,2.47,0.56,2.47S396.96,164.75,396.57,163.18z"/>
			<path class="st1" d="M419.69,165.32c-0.4,1.15-0.63,1.76-0.63,1.76S419.26,166.43,419.69,165.32c0.53-1.54,1.35-4.05,2.26-7.32
				l-8.2,21.95h1.07l8.19-21.92C421.38,161.16,420.3,163.73,419.69,165.32z"/>
			<path class="st1" d="M419.69,165.32c-0.43,1.11-0.63,1.76-0.63,1.76S419.29,166.47,419.69,165.32z"/>
		</g>
		<path class="st5" d="M242.97,150.58c-130.09,0-202.22,16.53-228.56,24.15c-2.89,0.84-2.55,5.04,0.44,5.4
			c26.69,3.23,98.74,10.1,228.12,10.1s201.43-6.87,228.12-10.1c2.99-0.36,3.33-4.56,0.44-5.4
			C445.19,167.11,373.07,150.58,242.97,150.58z"/>
		<g>
			<g>
				<polygon class="st7" points="333.36,83 327.53,174.34 333.42,174.34 348.76,97.84 357.77,174.34 363.29,174.34 363.61,83 				
					"/>
			</g>
			<g>
				<polygon class="st8" points="299.28,55.93 299.2,56.59 295.31,88.74 370.4,88.74 363.19,56.99 351.28,18.03 323.65,23.01 
					323.08,23.11 322.51,22.99 285.99,15.31 299.08,55.31 				"/>
				<path class="st9" d="M374.12,91.71l-8.06-35.48l-12.71-41.59l-30.22,5.45l-41.56-8.75l14.69,44.89l-4.29,35.48H374.12z
					 M322.51,22.99l0.57,0.12l0.57-0.1l27.62-4.98l11.91,38.96l7.22,31.75h-75.09l3.89-32.15l0.08-0.65l-0.2-0.63l-13.09-40
					L322.51,22.99z"/>
			</g>
			<path class="st10" d="M348.71,40.88L348.71,40.88c-2.58,0-4.68-2.1-4.68-4.68v-7.8h9.36v7.8
				C353.39,38.79,351.29,40.88,348.71,40.88z"/>
			<polygon class="st11" points="364.84,52.24 328.96,54.37 296.25,56.23 291.96,91.71 374.12,91.71 			"/>
			<g>
				<g>
					<g>
						<g>
							<path class="st9" d="M320.75,28.63c-0.87,0-1.83,0.81-2.73,1.91h5.45C322.58,29.44,321.63,28.63,320.75,28.63z"/>
						</g>
						<g>
							<path class="st3" d="M327.19,36.92c0,0-1.72-3.93-3.71-6.38h-5.45c-1.99,2.45-3.71,6.38-3.71,6.38H327.19z"/>
						</g>
					</g>
					<g>
						<g>
							<path class="st9" d="M313.98,31.37c-0.58,0-1.22,0.54-1.83,1.28h3.65C315.2,31.91,314.56,31.37,313.98,31.37z"/>
						</g>
						<g>
							<path class="st3" d="M318.28,36.92c0,0-1.15-2.63-2.48-4.27h-3.65c-1.33,1.64-2.48,4.27-2.48,4.27H318.28z"/>
						</g>
					</g>
					<g>
						<g>
							<path class="st9" d="M327.53,31.37c-0.58,0-1.22,0.54-1.83,1.28h3.65C328.75,31.91,328.11,31.37,327.53,31.37z"/>
						</g>
						<g>
							<path class="st3" d="M331.84,36.92c0,0-1.15-2.63-2.48-4.27h-3.65c-1.33,1.64-2.48,4.27-2.48,4.27H331.84z"/>
						</g>
					</g>
				</g>
				<path class="st7" d="M328.78,41.35c-2.51,1.29-4.47,3.32-5.94,6.12c-15.5-9.64-28.27-7.72-28.8-7.62l0.57,1.77
					c0.13-0.02,12.54-2.21,27.59,7.2c-0.41,0.93-0.78,1.92-1.09,3c-3.76,12.85-22.84,14.53-23.03,14.55l-0.22,1.5
					c0.68-0.05,13.81-1.2,20.92-8.99c2.55,1.95,12.94,11.34,6.48,29.87h1.59c6.62-19.01-4.22-28.81-7.12-31.02
					c1.22-1.58,2.2-3.39,2.81-5.49c1.39-4.75,3.66-7.88,6.94-9.56c4.64-2.39,11.37-1.91,21.16,1.52l0.49-1.4
					C340.91,39.22,333.81,38.76,328.78,41.35z"/>
				<g>
					<g>
						<path class="st12" d="M296.77,76.67c0,0,6.11-6.12,12.65-1.88c6.54,4.23,8.16,1.28,11.07,4.19c3.9,3.9,0.26,9.76,0.26,9.76
							h-25.44L296.77,76.67z"/>
					</g>
				</g>
			</g>
			<polygon class="st13" points="323.13,20.09 329.36,56.71 333.36,91.71 291.96,91.71 296.25,56.23 281.57,11.34 			"/>
			<path class="st10" d="M351.93,46.61l9.35,19.2c0.63,1.3,1.82,2.24,3.23,2.55l0,0c3.14,0.71,6.13-1.85,5.77-5.05
				c-1.09-9.74-9.6-22.89-9.6-22.89L351.93,46.61z"/>
			<g>
				<g>
					<path class="st14" d="M332.68,82.08c0,0-0.01-0.18-0.07-0.49"/>
					<path class="st15" d="M332.38,80.62c-0.81-2.86-3.76-9-14.1-9.89c-8.77-0.76-13.08-7.3-6.13-17.53
						c6.69-9.84,9.1-7.92,9.28-16.12"/>
					<path class="st14" d="M321.43,36.56c0-0.16,0-0.33,0-0.5"/>
				</g>
			</g>
			<path class="st16" d="M319.16,37.49c0,1.19,0.97,2.16,2.16,2.16c1.19,0,2.16-0.97,2.16-2.16s-0.97-2.16-2.16-2.16
				C320.13,35.33,319.16,36.3,319.16,37.49z"/>
			<path class="st10" d="M345.02,10.19c0,0-6.95,1.32-6.95,12.54c0,11.22,6.13,10.89,10.49,8.09c4.36-2.81,6.4-9.74,3.41-16.17
				C348.97,8.21,345.02,10.19,345.02,10.19z"/>
			<path class="st3" d="M348.04,34.64c0,0-10.54-0.69-12.42,11.1c-1.53,9.62,1.72,13.47,1.45,21.6c-0.13,3.88-3.71,11-3.71,15.65
				c10.61,0,30.25,0,30.25,0s-0.85-4.85-3.31-15.65c-0.64-2.81,0.83-6.16,1.95-9.9C367.6,39.67,356.39,34.64,348.04,34.64z"/>
			<path class="st7" d="M344.69,21.19c0,0-7.2,0.67-7.98-7.82c-0.79-8.49,10.29-11.09,17.13-4.24c1.89-6.45,11.59-4.72,9.81,4.09
				c4.03,5.82-0.27,7.39-2.52,7.39c0,9.12-5.87,12.42-10.9,10.85C345.19,29.87,344.69,21.19,344.69,21.19z"/>
			<path class="st10" d="M336.03,43.13L325.55,60.8l-22.96-3.35l-0.62,3.39c0,0,13.26,8.4,25.99,7.03
				c7.24-0.78,13.86-13.66,16.79-20.22c0.96-2.16,0.26-4.7-1.68-6.05l0,0C340.73,39.97,337.49,40.67,336.03,43.13z"/>
			<path class="st10" d="M344.69,21.19c0,0,2.48-0.26,2.48,2.33c0,2.6-3.19,2.86-3.19,2.86L344.69,21.19z"/>
			<path class="st17" d="M333.96,78.98c0,0-5.69,11.41-5.69,30.06c7.92,3.8,18.89,2.81,18.89,2.81l1.54-9.9l0.85,10.02
				c0,0,9.9,2.36,18.48-2.59c0.54-18.98-5.21-30.39-5.21-30.39S352.02,82.75,333.96,78.98z"/>
			<path class="st17" d="M326.47,175.38v-12.71h11.31l-2.26,15.82h-16.78C318.75,178.5,320.44,175.38,326.47,175.38z"/>
			<path class="st17" d="M366.4,175.38v-12.71h-11.31l2.22,15.82h16.81C374.12,178.5,372.44,175.38,366.4,175.38z"/>
			<g>
				<path class="st18" d="M350.18,38.64c0,0-9.03,15.84-9.03,33.35s36.41,17.25,36.41,0c0-17.25-6.92-33.35-6.92-33.35H350.18z"/>
				<path class="st0" d="M347.02,45.58h23.82c3.41,0,6.19-2.79,6.19-6.19l0,0c0-3.41-2.79-6.19-6.19-6.19h-23.52
					c-2.91,0-5.29,2.38-5.29,5.29v2.11C342.03,43.34,344.27,45.58,347.02,45.58z"/>
				<path class="st0" d="M342.09,61.83c0,0-8.01,16.83,3.73,16.83c11.73,0,6.47-16.83,6.47-16.83H342.09z"/>
				<path class="st0" d="M359.44,61.83c0,0-7.22,16.83,5.65,16.83c12.87,0,15.23-0.59,15.23-8.25c0-7.66-3.3-8.58-3.3-8.58H359.44z"
					/>
				<path class="st19" d="M341.69,39.39c0,3.35,2.05,6.07,4.59,6.07c2.53,0,4.59-2.72,4.59-6.07c0-3.35-2.05-6.07-4.59-6.07
					C343.74,33.32,341.69,36.04,341.69,39.39z"/>
				<path class="st16" d="M353.47,33.2c0,0,5.62,6.71,0,12.39c2.86,0,2.86,0,2.86,0s5.93-6.24-0.15-12.39"/>
				<path class="st16" d="M367.06,33.2c0,0,5.62,6.71,0,12.39c2.86,0,2.86,0,2.86,0s5.93-6.24-0.15-12.39"/>
			</g>
			<path class="st10" d="M303.61,57.93c0,0-3.32-4.19-4.1-3.92c-0.78,0.28,0.78,2.35,0.78,2.35s-4.61-0.69-5.25-0.69
				c-0.64,0-0.18,1.24,0.92,1.52c-0.99,0.99,0.23,3.36,3.59,3.64c3.36,0.28,4.33-0.28,4.33-0.28L303.61,57.93z"/>
		</g>
		<path class="st20" d="M353.93,10.08c0,0-2.48,3.99,2.26,6.19c-1.17,2.51,1.53,5.21,4.47,4.19"/>
	</g>
	<g>
		<g id="XMLID_319_">
			<g id="XMLID_338_">
				<path id="XMLID_346_" class="st5" d="M37.61,191.8c-0.19,0.21-0.35,0.43-0.48,0.68l-0.2-0.11c-0.03-0.14-0.15-0.23-0.29-0.22
					c-0.14,0.02-0.25,0.16-0.23,0.31c0.02,0.15,0.15,0.26,0.29,0.25c0.03,0,0.06-0.01,0.08-0.02l0.2,0.11
					c-0.11,0.26-0.19,0.53-0.23,0.81l0.32,0.06c0.1-0.61,0.37-1.17,0.78-1.62L37.61,191.8z"/>
				<path id="XMLID_345_" class="st5" d="M39.99,190.73c-0.07,0-0.15,0-0.22,0.01l-0.03-0.29c0.08-0.07,0.13-0.18,0.12-0.3
					c-0.02-0.18-0.17-0.31-0.35-0.29c-0.17,0.02-0.29,0.19-0.27,0.37c0.01,0.12,0.08,0.21,0.18,0.26l0.03,0.29
					c-0.31,0.05-0.61,0.15-0.89,0.3l0.14,0.32c0.41-0.21,0.84-0.31,1.3-0.31c0.22,0,0.43,0.02,0.64,0.07l0.07-0.35
					C40.47,190.76,40.23,190.73,39.99,190.73z"/>
				<path id="XMLID_344_" class="st5" d="M42.86,191.92c0.14-0.02,0.25-0.16,0.23-0.31c-0.02-0.15-0.15-0.26-0.29-0.24
					c-0.13,0.02-0.23,0.14-0.23,0.28l-0.18,0.17c-0.18-0.2-0.39-0.38-0.61-0.53l-0.18,0.3c0.49,0.33,0.88,0.8,1.11,1.36l0.3-0.15
					c-0.11-0.26-0.25-0.5-0.41-0.72l0.17-0.16C42.8,191.92,42.83,191.92,42.86,191.92z"/>
				<path id="XMLID_343_" class="st5" d="M39.76,195.49c-0.17,0.01-0.34,0.02-0.5,0.02c-0.38,0-0.75-0.03-1.08-0.08
					c-0.17-0.03-0.37-0.07-0.55-0.14c0.45,0.87,1.33,1.46,2.34,1.46c1.24,0,2.28-0.89,2.58-2.1c-0.3,0.21-0.65,0.38-1.07,0.52
					C40.97,195.33,40.37,195.45,39.76,195.49z"/>
				<path id="XMLID_339_" class="st5" d="M39.99,191.43c-1.45,0-2.64,1.24-2.64,2.77c0,0.2,0.02,0.4,0.06,0.59
					c0.29,0.22,1.17,0.41,2.32,0.34c1.25-0.08,2.3-0.45,2.89-1.01c0-0.09-0.01-0.18-0.02-0.27
					C42.45,192.48,41.32,191.43,39.99,191.43z M39.06,194.47c-0.44,0-0.8-0.39-0.8-0.86c0-0.48,0.36-0.86,0.8-0.86
					c0.44,0,0.8,0.39,0.8,0.86C39.86,194.08,39.5,194.47,39.06,194.47z M41.11,194.05c-0.33,0-0.59-0.28-0.59-0.63
					s0.26-0.63,0.59-0.63c0.33,0,0.59,0.28,0.59,0.63S41.44,194.05,41.11,194.05z"/>
			</g>
			<path id="XMLID_336_" class="st5" d="M46.94,192.3c-0.13-0.05-0.35-0.14-0.6-0.11c-0.24,0.03-0.37,0.16-0.37,0.47v0.4h0.97v0.8
				h-0.97v2.54h-0.84v-2.54h-0.58v-0.8h0.58v-0.41c0-0.78,0.39-1.3,1.11-1.3c0.28,0,0.5,0.06,0.69,0.14L46.94,192.3z"/>
			<path id="XMLID_334_" class="st5" d="M48.98,193.86c-0.08-0.01-0.16-0.02-0.23-0.02c-0.39,0-0.66,0.26-0.66,0.75v1.82h-0.84
				v-3.34h0.81v0.37c0.2-0.31,0.49-0.46,0.88-0.46c0.18,0,0.37,0.06,0.47,0.16L48.98,193.86z"/>
			<path id="XMLID_331_" class="st5" d="M52.3,194.73c0,0.1-0.01,0.23-0.02,0.3h-2.21c0.09,0.48,0.4,0.69,0.8,0.69
				c0.27,0,0.56-0.12,0.79-0.32l0.49,0.58c-0.35,0.35-0.8,0.51-1.33,0.51c-0.95,0-1.62-0.7-1.62-1.75c0-1.05,0.64-1.77,1.57-1.77
				C51.69,192.98,52.3,193.69,52.3,194.73z M50.08,194.42h1.38c-0.08-0.43-0.32-0.67-0.68-0.67
				C50.39,193.75,50.16,194.01,50.08,194.42z"/>
			<path id="XMLID_328_" class="st5" d="M55.62,194.73c0,0.1-0.01,0.23-0.02,0.3H53.4c0.09,0.48,0.4,0.69,0.8,0.69
				c0.27,0,0.56-0.12,0.79-0.32l0.49,0.58c-0.35,0.35-0.8,0.51-1.33,0.51c-0.95,0-1.62-0.7-1.62-1.75c0-1.05,0.64-1.77,1.57-1.77
				C55.01,192.98,55.62,193.69,55.62,194.73z M53.4,194.42h1.38c-0.08-0.43-0.32-0.67-0.68-0.67
				C53.71,193.75,53.48,194.01,53.4,194.42z"/>
			<path id="XMLID_325_" class="st5" d="M59.24,194.74c0,1-0.65,1.76-1.51,1.76c-0.42,0-0.71-0.18-0.92-0.43v1.73h-0.83v-4.72h0.82
				v0.37c0.2-0.27,0.5-0.46,0.93-0.46C58.6,192.98,59.24,193.73,59.24,194.74z M56.78,194.74c0,0.53,0.32,0.92,0.8,0.92
				c0.49,0,0.8-0.41,0.8-0.92c0-0.51-0.31-0.92-0.8-0.92C57.11,193.82,56.78,194.21,56.78,194.74z"/>
			<path id="XMLID_322_" class="st5" d="M60.59,191.97c0,0.32-0.23,0.57-0.54,0.57c-0.3,0-0.53-0.25-0.53-0.57
				c0-0.32,0.23-0.58,0.53-0.58C60.36,191.39,60.59,191.65,60.59,191.97z M60.48,196.41h-0.84v-3.34h0.84V196.41z"/>
			<path id="XMLID_320_" class="st5" d="M61.88,194.26l1.17-1.19h1.03l-1.51,1.57l1.52,1.77h-1.03l-1.18-1.35v1.35h-0.84v-4.97h0.84
				V194.26z"/>
		</g>
		<g>
			<path class="st5" d="M4.77,196.38v-0.49c-0.23,0.33-0.6,0.57-1.04,0.57c-0.8,0-1.37-0.66-1.37-1.73c0-1.05,0.56-1.73,1.37-1.73
				c0.41,0,0.79,0.22,1.04,0.58v-1.75h0.48v4.55H4.77z M4.77,195.48v-1.49c-0.17-0.29-0.54-0.53-0.92-0.53
				c-0.62,0-0.99,0.55-0.99,1.28c0,0.73,0.37,1.27,0.99,1.27C4.23,196,4.6,195.77,4.77,195.48z"/>
			<path class="st5" d="M5.87,194.73c0-0.96,0.64-1.73,1.51-1.73c0.93,0,1.47,0.78,1.47,1.77v0.13H6.37
				c0.04,0.62,0.44,1.14,1.11,1.14c0.35,0,0.71-0.15,0.95-0.42l0.23,0.33c-0.31,0.33-0.72,0.51-1.22,0.51
				C6.52,196.46,5.87,195.76,5.87,194.73z M7.37,193.42c-0.65,0-0.98,0.59-1,1.1h2.01C8.38,194.03,8.07,193.42,7.37,193.42z"/>
			<path class="st5" d="M9.2,195.94l0.25-0.37c0.2,0.25,0.59,0.47,1.01,0.47c0.47,0,0.72-0.24,0.72-0.57c0-0.8-1.9-0.31-1.9-1.53
				c0-0.51,0.41-0.95,1.14-0.95c0.52,0,0.89,0.21,1.14,0.48l-0.22,0.35c-0.18-0.24-0.52-0.42-0.92-0.42c-0.42,0-0.68,0.23-0.68,0.52
				c0,0.72,1.9,0.25,1.9,1.53c0,0.55-0.41,1-1.21,1C9.93,196.46,9.51,196.3,9.2,195.94z"/>
			<path class="st5" d="M12.18,192.27c0-0.19,0.15-0.35,0.32-0.35c0.18,0,0.32,0.16,0.32,0.35c0,0.19-0.15,0.34-0.32,0.34
				C12.32,192.61,12.18,192.46,12.18,192.27z M12.26,196.38v-3.3h0.48v3.3H12.26z"/>
			<path class="st5" d="M13.52,197.23l0.24-0.38c0.25,0.33,0.56,0.45,1,0.45c0.51,0,0.99-0.27,0.99-0.99v-0.47
				c-0.22,0.33-0.6,0.59-1.03,0.59c-0.8,0-1.37-0.64-1.37-1.71c0-1.06,0.56-1.71,1.37-1.71c0.41,0,0.78,0.22,1.03,0.58v-0.5h0.48
				v3.2c0,1.09-0.71,1.43-1.46,1.43C14.24,197.72,13.89,197.61,13.52,197.23z M15.75,195.43v-1.44c-0.17-0.29-0.53-0.53-0.92-0.53
				c-0.62,0-0.99,0.53-0.99,1.26c0,0.72,0.37,1.26,0.99,1.26C15.21,195.97,15.58,195.72,15.75,195.43z"/>
			<path class="st5" d="M19.09,196.38v-2.16c0-0.58-0.27-0.76-0.69-0.76c-0.38,0-0.73,0.25-0.91,0.51v2.41h-0.48v-3.3h0.48v0.48
				c0.22-0.27,0.64-0.56,1.09-0.56c0.64,0,0.98,0.35,0.98,1.06v2.31H19.09z"/>
			<path class="st5" d="M20.18,194.73c0-0.96,0.64-1.73,1.51-1.73c0.93,0,1.47,0.78,1.47,1.77v0.13h-2.48
				c0.04,0.62,0.44,1.14,1.11,1.14c0.35,0,0.71-0.15,0.95-0.42l0.23,0.33c-0.31,0.33-0.72,0.51-1.22,0.51
				C20.84,196.46,20.18,195.76,20.18,194.73z M21.69,193.42c-0.65,0-0.98,0.59-1,1.1h2.01C22.69,194.03,22.39,193.42,21.69,193.42z"
				/>
			<path class="st5" d="M26,196.38v-0.49c-0.23,0.33-0.6,0.57-1.04,0.57c-0.8,0-1.37-0.66-1.37-1.73c0-1.05,0.56-1.73,1.37-1.73
				c0.41,0,0.79,0.22,1.04,0.58v-1.75h0.48v4.55H26z M26,195.48v-1.49c-0.17-0.29-0.54-0.53-0.92-0.53c-0.62,0-0.99,0.55-0.99,1.28
				c0,0.73,0.37,1.27,0.99,1.27C25.46,196,25.83,195.77,26,195.48z"/>
			<path class="st5" d="M28.76,196.38v-4.55h0.48v1.75c0.25-0.36,0.62-0.58,1.04-0.58c0.8,0,1.37,0.68,1.37,1.73
				c0,1.07-0.57,1.73-1.37,1.73c-0.43,0-0.81-0.24-1.04-0.57v0.49H28.76z M30.15,196c0.62,0,0.99-0.54,0.99-1.27
				c0-0.73-0.37-1.28-0.99-1.28c-0.37,0-0.75,0.25-0.92,0.53v1.49C29.4,195.77,29.77,196,30.15,196z"/>
			<path class="st5" d="M32.16,197.2c0.07,0.03,0.18,0.05,0.26,0.05c0.21,0,0.35-0.08,0.46-0.35l0.2-0.5l-1.28-3.33h0.51l1.02,2.7
				l1.02-2.7h0.52l-1.54,3.97c-0.18,0.48-0.5,0.66-0.9,0.67c-0.1,0-0.26-0.02-0.35-0.05L32.16,197.2z"/>
		</g>
	</g>
</g>
</svg>
